<?xml version="1.0" encoding="utf-8"?>
<!-- Generator: Adobe Illustrator 16.0.0, SVG Export Plug-In . SVG Version: 6.00 Build 0)  -->
<!DOCTYPE svg PUBLIC "-//W3C//DTD SVG 1.1//EN" "http://www.w3.org/Graphics/SVG/1.1/DTD/svg11.dtd">
<svg version="1.1" id="图层_1" xmlns="http://www.w3.org/2000/svg" xmlns:xlink="http://www.w3.org/1999/xlink" x="0px" y="0px"
	 width="70px" height="70px" viewBox="0 0 70 70" enable-background="new 0 0 70 70" xml:space="preserve">
<g>
</g>
<g>
	<path fill="#E60012" d="M8.096,60.72v-2.244C8.952,58.81,9.882,59,10.857,59c1.982,0,3.781-0.759,5.127-1.997
		c1.504-1.385,2.457-3.369,2.457-5.578c0-3.482-2.352-6.411-5.55-7.3L2.245,44.131v12.872v3.717v2.271h5.851V60.72z M10.857,46.809
		c2.556,0,4.628,2.063,4.628,4.616c0,2.552-2.073,4.618-4.628,4.618c-2.541,0-4.613-2.066-4.613-4.618
		C6.244,48.872,8.316,46.809,10.857,46.809z"/>
	<path fill="#E60012" d="M21.292,62.95h13.717l0.84-2.23l0.286-0.776h9.46l0.288,0.776l0.84,2.279h5.716V60.72v-3.717v-0.011
		l3.253-3.265l1.858,3.275l2.117,3.717l1.292,2.279h3.722l-1.307-2.279l-2.141-3.717l-3.222-5.601l7.189-7.217h-4.664l-8.099,8.095
		v-8.052H48.87v12.774v1.515l-0.598-1.515l-3.773,0.006c0.023,0.062,0.045,0.119,0.068,0.176H37.18
		c0.015-0.06,0.036-0.121,0.061-0.182c1.398-3.714,2.971-7.843,3.055-8.104c0.196-0.601,0.71-0.801,1.021-0.093
		c0.296,0.682,1.891,4.74,3.184,8.197h3.773l-5.028-12.817H38.2L33.83,57.003l-0.915,2.707h-8.999c-0.431,0-0.816-0.145-0.816-0.903
		v-1.804V56.23c0-0.523-0.098-0.999,1.005-0.999h7.57v-3.047h-7.623c-0.567,0-0.953-0.142-0.953-1.051v-2.805
		c0-0.387-0.188-1.001,0.908-1.001h8v-3.143H20.574c-0.567,0-1.097,0.136-1.097,0.952v11.865v3.717v0.563
		C19.478,62.186,19.531,62.95,21.292,62.95z"/>
	<path fill="#E60012" d="M62.851,57.003l-3.031-5.358l8.887-8.944h-8.734l-6.126,6.12V42.7h-6.479v7.765l-3.093-7.736h-7.222
		l-3.85,11.248v-3.278h-8.233c-0.311,0-0.394-0.145-0.394-0.329v-0.793c0-0.182-0.024-0.444,0.332-0.444h8.545v-6.403H19.75
		c-1.036,0-1.634,1.038-1.634,1.878v1.311c0,0-1.762-2.669-4.181-3.188H0.838v14.274h0.634V43.369l11.502-0.008
		c2.677,0.703,4.833,2.703,5.74,5.285v-4.004c0-0.751,0.492-1.273,1.278-1.273h12.855v5.058h-8.363
		c-0.583,0-0.568,0.338-0.568,0.584v1.844c0,0.514,0.258,0.614,0.627,0.614h8.084v4.238l-0.144,0.24h-7.812
		c-0.718,0-0.756,0.428-0.756,0.765v0.291v1.322c0,0.667,0.424,0.675,0.802,0.675h7.577l0.681-1.997l4.657-13.535h6.238l4.19,11.051
		V43.421h5.195v6.943l6.948-6.989h6.95l-8.136,8.138l3.136,5.49l2.118,3.717l1.74,3.036h-5.574l-1.724-3.036l-2.109-3.717
		l-1.119-1.959l-1.96,1.959l-0.271,0.274v3.442v3.063l-7.154-0.026l-1.089-3.036v-0.009h-8.287v0.009l-1.15,3.05H20.907
		c-1.875,0-2.223-1.097-2.223-1.581V60.72v-3.717v-2.715c-0.371,1.011-0.928,1.934-1.638,2.715h-0.003
		c-1.521,1.694-3.721,2.754-6.186,2.754c-0.666,0-1.323-0.082-1.951-0.229L8.883,60.72l-0.068,3.021H1.472V60.72v-3.714
		l-0.634-0.003v3.717v3.683h8.756V60.72v-0.285c0,0,5.762,0.759,8.432-3.426v3.711v1.38c0,0.573,0.211,2.331,2.881,2.331h15.116
		l1.156-3.063h7.396l1.15,3.063h8.212V60.72v-3.136l0.565-0.581l0.741-0.755l0.432,0.755l2.134,3.717l2.124,3.711h7.131
		l-2.104-3.711L62.851,57.003z M31.788,58.276H24.93c-0.197,0-0.364-0.05-0.364-0.28v-0.889c0-0.037,0-0.07,0-0.104
		c0.009-0.152,0.053-0.274,0.348-0.274h7.426l-0.098,0.274L31.788,58.276z"/>
	<path fill="#E60012" d="M38.345,56.375h5.043l-2.548-6.641L38.345,56.375z M39.198,55.754l1.619-4.144l1.617,4.144H39.198z"/>
	<path fill="#E60012" d="M10.857,55.094c2.027,0,3.675-1.646,3.675-3.669c0-2.022-1.648-3.67-3.675-3.67
		c-2.019,0-3.668,1.647-3.668,3.67C7.189,53.448,8.838,55.094,10.857,55.094z M10.857,48.372c1.687,0,3.047,1.371,3.047,3.053
		c0,1.683-1.361,3.048-3.047,3.048c-1.679,0-3.04-1.365-3.04-3.048C7.817,49.743,9.178,48.372,10.857,48.372z"/>
	<path fill="#E60012" d="M15.145,37.038l0.166-0.005h37.876l-3.356-5.382H24.612c0,0-0.839,0.035-1.187-0.73
		c-0.386-0.822,0.083-1.295,0.265-1.549c0.174-0.251,8.439-12.077,8.605-12.333c0.158-0.253,0.446-0.597,1.059-0.597
		c0.62,0,0.914,0.366,1.088,0.606c0.16,0.24,6.254,10.08,6.254,10.08h6.358L34.987,7.767c-0.296-0.45-0.802-0.749-1.377-0.749
		c-0.628,0-1.157,0.344-1.444,0.851L13.73,34.262c-0.204,0.289-0.333,0.644-0.333,1.03C13.397,36.256,14.185,37.038,15.145,37.038z"
		/>
	<path fill="#E60012" d="M13.807,38.438c0.431,0.182,0.907,0.282,1.414,0.28h40.933l-0.175-0.28l-5.202-8.408H25.618
		c0,0-0.137-0.003-0.188-0.106c-0.031-0.075-0.031-0.16,0.067-0.294c0.1-0.136,7.434-10.635,7.486-10.722
		c0.069-0.091,0.183-0.235,0.355-0.235c0.166,0,0.288,0.122,0.37,0.287c0.092,0.175,6.095,9.808,6.095,9.808H49.99L36.386,6.958
		c-0.575-0.93-1.603-1.55-2.775-1.55c-1.037,0-1.959,0.484-2.555,1.233c-0.083,0.102-0.159,0.211-0.227,0.325L12.43,33.2
		c-0.446,0.581-0.711,1.305-0.711,2.092C11.719,36.697,12.566,37.91,13.807,38.438z M13.058,33.761l18.45-26.379
		c0.053-0.083,0.076-0.128,0.137-0.204l0.083-0.118c0.461-0.547,1.12-0.85,1.883-0.85c0.794,0,1.497,0.374,1.951,0.952L48.47,27.874
		h-8.273c0,0-6.329-10.155-6.42-10.321c-0.091-0.163-0.211-0.284-0.416-0.284c-0.233,0-0.309,0.125-0.392,0.247
		c-0.084,0.12-8.341,11.917-8.562,12.231c-0.227,0.312-0.362,0.548-0.249,0.791c0.128,0.263,0.431,0.271,0.431,0.271l25.755,0.012
		l4.357,7.066H15.174c-1.452-0.008-2.616-1.166-2.616-2.594C12.559,34.721,12.748,34.187,13.058,33.761z"/>
</g>
</svg>
